<svg width="27" height="30" viewBox="0 0 27 30" fill="none" xmlns="http://www.w3.org/2000/svg">
<path d="M15.8314 9.19954C15.7755 9.14856 15.7178 9.09986 15.6587 9.05366L15.6566 9.05211C14.8077 8.39623 13.783 8.35494 12.8932 8.50283C12.0114 8.64937 11.1768 8.99589 10.6259 9.2246L10.6113 9.23068C10.6111 9.23076 10.6109 9.23084 10.6107 9.23092C10.4971 9.27787 10.3844 9.32829 10.2729 9.38215C10.2474 9.26222 10.2367 9.15129 10.2386 9.04714C10.2428 8.81455 10.3102 8.58288 10.4686 8.32827C10.6637 8.01555 10.8829 7.87356 11.1505 7.79886C11.4507 7.71505 11.8255 7.71149 12.3448 7.73398L15.8314 9.19954ZM15.8314 9.19954C16.4578 8.43927 16.9386 7.20486 16.7023 6.09708L16.7022 6.09679C16.5115 5.20022 15.8456 4.42829 14.5723 3.84095L15.8314 9.19954ZM6.3199 13.9078C4.24178 13.3634 2.43521 12.1864 1.419 10.6349L1.41879 10.6346C0.549736 9.3056 0.290938 7.76619 0.669131 6.19585L0.669175 6.19567C1.16886 4.12432 2.69823 2.77108 4.44461 2.01519C6.18481 1.26197 8.19624 1.07344 9.79439 1.36075C11.6443 1.69328 14.0373 2.7989 14.8852 5.02105L14.8854 5.02145C15.2409 5.95562 14.8622 6.64998 14.6626 6.91883L6.3199 13.9078ZM6.3199 13.9078C5.65822 15.6674 5.78443 17.3672 6.80376 18.6945L6.3199 13.9078ZM19.34 19.4124C18.777 20.1193 18.495 21.0596 18.3563 21.959C18.1844 21.9593 18.027 21.9473 17.8914 21.9261C17.775 21.9079 17.682 21.8841 17.6135 21.8593C17.5409 21.8332 17.5159 21.8133 17.5176 21.8147L19.34 19.4124ZM19.34 19.4124C18.6394 19.8197 17.8519 20.1448 17.0426 20.399L19.34 19.4124ZM6.80392 18.6947L6.80774 18.6997C7.22882 19.2486 8.58281 21.0135 11.1804 21.1722L11.1807 21.1722C11.8609 21.2133 12.6698 21.1939 13.5322 21.108C13.6583 22.4695 14.2289 23.6442 15.2194 24.4818C16.0859 25.2159 17.2862 25.4866 18.4585 25.4673C19.1669 27.8664 21.4543 29.5002 24.2314 29.5002C25.2035 29.5002 25.9996 28.7225 25.9996 27.7474C25.9996 26.7723 25.2035 25.9946 24.2314 25.9946C23.164 25.9946 22.1934 25.4665 21.8779 24.5624C23.3139 23.7398 24.1383 22.436 24.0225 20.9245C23.9336 19.7514 23.2492 18.7613 22.1697 18.4351C21.6431 18.275 21.1069 18.2995 20.6146 18.4768C20.6355 18.4571 20.6562 18.4372 20.6767 18.4173L20.6774 18.4166C20.9716 18.1293 21.2979 17.675 21.5307 17.1388C21.764 16.6015 21.9194 15.9448 21.8205 15.2642L21.8205 15.2636C21.6988 14.4328 21.2162 13.7494 20.4771 13.3599C19.3855 12.7833 18.1761 13.221 17.3614 13.6701C16.9181 13.9144 16.5376 14.1915 16.2718 14.4039C16.6206 13.9732 16.8518 13.4397 16.9542 12.854C17.4641 12.5262 17.9624 12.1147 18.4205 11.5934C18.4206 11.5933 18.4207 11.5932 18.4208 11.593L6.80392 18.6947ZM20.1605 5.37386C19.8524 3.92277 18.8698 1.9593 16.0651 0.663939L16.0648 0.663794C15.1856 0.258517 14.133 0.629923 13.718 1.50844C13.3021 2.38874 13.6884 3.43337 14.5722 3.8409L20.1605 5.37386ZM15.5878 15.0149C15.6172 14.9963 15.6461 14.9772 15.6746 14.9576C15.0317 15.6713 14.5018 16.5587 14.1282 17.4955C13.1619 17.6549 12.1961 17.7166 11.396 17.6684L11.395 17.6683C11.0365 17.6474 10.7471 17.5611 10.4786 17.399C10.2039 17.2332 9.9262 16.973 9.6152 16.5687C9.46571 16.3733 9.41364 16.1086 9.45865 15.7676C9.49984 15.4556 9.61791 15.1232 9.7612 14.8182C10.4958 15.3876 11.4295 15.6762 12.3474 15.7449C13.4954 15.8307 14.6976 15.5796 15.5878 15.0149L15.5878 15.0149ZM4.38634 8.72587L4.386 8.72535C4.04631 8.20736 3.95445 7.66255 4.11018 7.01175C4.27856 6.31431 4.83556 5.74807 5.64285 5.34534C6.44667 4.94435 7.43394 4.74158 8.3165 4.74158H8.31932C8.62458 4.74158 8.90968 4.76484 9.16536 4.81144L9.16536 4.81145L9.16863 4.81202C9.182 4.81437 9.19541 4.81679 9.20886 4.81928C8.57707 5.15965 7.96566 5.68448 7.464 6.48801L7.46392 6.48814C6.59986 7.87303 6.56202 9.22178 6.89949 10.4232C5.77471 10.0602 4.83732 9.41543 4.38634 8.72587Z" fill="#063458" stroke="white"/>
</svg>
