<svg width="24" height="19" viewBox="0 0 24 19" fill="none" xmlns="http://www.w3.org/2000/svg">
<path d="M2.35802 18.8642C1.70957 18.8642 1.15465 18.6335 0.693259 18.1721C0.231872 17.7107 0.000786008 17.1554 0 16.5062V2.35802C0 1.70957 0.231086 1.15465 0.693259 0.693259C1.15543 0.231872 1.71035 0.000786008 2.35802 0H21.2222C21.8707 0 22.426 0.231086 22.8882 0.693259C23.3503 1.15543 23.581 1.71035 23.5802 2.35802V16.5062C23.5802 17.1546 23.3496 17.7099 22.8882 18.1721C22.4268 18.6343 21.8715 18.865 21.2222 18.8642H2.35802ZM11.7901 10.6111L21.2222 4.71605V2.35802L11.7901 8.25309L2.35802 2.35802V4.71605L11.7901 10.6111Z" fill="#B8010E"/>
</svg>
