<svg width="31" height="31" viewBox="0 0 31 31" fill="none" xmlns="http://www.w3.org/2000/svg">
<path d="M14.4023 24.7582L25.733 13.4276C23.8269 12.6313 22.0957 11.4684 20.6376 10.0051C19.1735 8.54668 18.0101 6.81491 17.2136 4.9081L5.88288 16.2388C4.99891 17.1227 4.55616 17.5655 4.17623 18.0527C3.72795 18.6279 3.34322 19.2499 3.02876 19.9079C2.76372 20.4656 2.56609 21.06 2.17084 22.2458L0.0842532 28.5009C-0.0117822 28.7873 -0.0260305 29.0948 0.0431095 29.3889C0.112249 29.6829 0.262037 29.9519 0.475636 30.1655C0.689234 30.3791 0.958176 30.5289 1.25223 30.598C1.54629 30.6671 1.8538 30.6529 2.1402 30.5569L8.39536 28.4703C9.58266 28.075 10.1755 27.8774 10.7332 27.6124C11.394 27.2978 12.0124 26.9153 12.5884 26.4649C13.0756 26.085 13.5184 25.6422 14.4023 24.7582ZM28.8767 10.2839C30.0064 9.15414 30.6411 7.62187 30.6411 6.02417C30.6411 4.42646 30.0064 2.89419 28.8767 1.76444C27.7469 0.634687 26.2147 1.19039e-08 24.6169 0C23.0192 -1.19039e-08 21.487 0.634687 20.3572 1.76444L18.9983 3.12332L19.0566 3.29337C19.726 5.20957 20.8219 6.94871 22.2615 8.37962C23.7352 9.86231 25.5352 10.9798 27.5178 11.6428L28.8767 10.2839Z" fill="#F3CA64"/>
</svg>
