<svg width="14" height="14" viewBox="0 0 14 14" fill="none" xmlns="http://www.w3.org/2000/svg">
<path fill-rule="evenodd" clip-rule="evenodd" d="M2.0055 1.337C1.8282 1.337 1.65817 1.40743 1.5328 1.5328C1.40743 1.65817 1.337 1.8282 1.337 2.0055V11.3645C1.337 11.5418 1.40743 11.7118 1.5328 11.8372C1.65817 11.9626 1.8282 12.033 2.0055 12.033H11.3645C11.5418 12.033 11.7118 11.9626 11.8372 11.8372C11.9626 11.7118 12.033 11.5418 12.033 11.3645V8.022C12.033 7.6528 12.3323 7.3535 12.7015 7.3535C13.0707 7.3535 13.37 7.6528 13.37 8.022V11.3645C13.37 11.8964 13.1587 12.4065 12.7826 12.7826C12.4065 13.1587 11.8964 13.37 11.3645 13.37H2.0055C1.47361 13.37 0.963501 13.1587 0.587397 12.7826C0.211293 12.4065 0 11.8964 0 11.3645V2.0055C0 1.47361 0.211293 0.963502 0.587397 0.587397C0.963502 0.211293 1.47361 0 2.0055 0H5.348C5.7172 0 6.0165 0.299298 6.0165 0.6685C6.0165 1.0377 5.7172 1.337 5.348 1.337H2.0055ZM9.359 1.337C8.9898 1.337 8.6905 1.0377 8.6905 0.6685C8.6905 0.299298 8.9898 0 9.359 0H12.7015C13.0707 0 13.37 0.299298 13.37 0.6685V4.011C13.37 4.3802 13.0707 4.6795 12.7015 4.6795C12.3323 4.6795 12.033 4.3802 12.033 4.011V2.2824L8.16045 6.15495C7.89939 6.41602 7.47611 6.41602 7.21505 6.15495C6.95398 5.89389 6.95398 5.47061 7.21505 5.20955L11.0876 1.337H9.359Z" fill="white"/>
</svg>
