<svg width="12" height="12" viewBox="0 0 12 12" fill="none" xmlns="http://www.w3.org/2000/svg">
<path d="M11.7193 8.73742V11.0396C11.7194 11.2045 11.657 11.3632 11.5446 11.4838C11.4322 11.6044 11.2783 11.6779 11.1138 11.6894C10.8295 11.7094 10.5973 11.7193 10.4172 11.7193C4.66365 11.7193 0 7.0557 0 1.30215C0 1.12245 0.00998315 0.890237 0.0299494 0.6055C0.0414881 0.441067 0.114968 0.287131 0.235561 0.174754C0.356155 0.0623774 0.514885 -7.45045e-05 0.679722 1.67052e-07H2.98192C3.06268 -8.16021e-05 3.14059 0.0298577 3.20051 0.084002C3.26043 0.138146 3.29808 0.21263 3.30616 0.292984C3.32092 0.442297 3.33481 0.562095 3.34783 0.652377C3.47721 1.55537 3.74237 2.43361 4.13433 3.25733C4.19618 3.38754 4.15581 3.54315 4.03862 3.62649L2.6336 4.63044C3.49283 6.63203 5.08797 8.22717 7.08956 9.0864L8.09221 7.68399C8.13302 7.62649 8.19282 7.58523 8.26106 7.56748C8.32931 7.54974 8.40162 7.55664 8.46528 7.58697C9.2889 7.97819 10.1669 8.24269 11.0696 8.37152C11.1599 8.38454 11.2792 8.39843 11.4277 8.41319C11.5079 8.42142 11.5822 8.45914 11.6362 8.51904C11.6902 8.57894 11.7194 8.65677 11.7193 8.73742Z" fill="white"/>
</svg>
