<svg width="162" height="54" viewBox="0 0 162 54" fill="none" xmlns="http://www.w3.org/2000/svg">
<path d="M19.4267 35C20.8087 36.2635 21.7037 38.0404 21.7037 40.0146C21.7037 43.8184 18.4922 46.9114 14.5437 46.9114C10.5952 46.9114 7.38373 43.8184 7.38373 40.0146C7.38373 38.0272 8.25241 36.2504 9.64755 34.9868V30.0249H4.5408C1.75051 32.5256 0 36.0793 0 40.0146C0 47.6221 6.51506 53.795 14.5437 53.795C22.5724 53.795 29.0874 47.6221 29.0874 40.0146C29.0874 36.0661 27.3238 32.5124 24.5335 29.9985H19.4267V35Z" fill="#0081CC"/>
<path d="M18.6505 34.6842V29.2221H23.7309L14.5309 19.7852L5.19922 29.3011H10.3586V34.6842H18.6505Z" fill="#E60012"/>
<path d="M35.7348 31.5522V30.5782H37.3537V28.3013H38.3672V30.5782H39.4333V31.5522H38.3672V32.5262C38.7752 33.0263 39.1964 33.4738 39.6702 33.8687V33.2238H42.3552V31.4206H40.9206L40.3678 32.5788C40.3678 32.5788 40.2888 32.5262 40.223 32.513C40.1572 32.4999 40.0519 32.4604 39.8808 32.3946C39.7097 32.3288 39.5649 32.2761 39.4333 32.2103C39.8413 31.3811 40.065 30.8415 40.1308 30.5914C40.2493 30.2887 40.3941 29.7885 40.552 29.1041L41.5786 29.3805L41.2496 30.4071H42.3683V28.3671H43.4344V30.4071H45.5666V31.4338H43.4344V33.2369H46.1721V34.1714H43.803C44.6058 35.3165 45.5403 36.2378 46.5801 36.9485C46.0799 37.3829 45.7904 37.6724 45.6983 37.8304C44.7769 37.0012 44.0136 36.172 43.4213 35.3691V38.936H42.3552V35.3165C41.8945 35.9088 41.3812 36.4484 40.8284 36.9354C40.4862 37.2776 40.0519 37.6198 39.5254 37.962C39.4991 37.8962 39.2358 37.6198 38.7357 37.1328C39.3543 36.7248 39.9466 36.3036 40.4994 35.8298C40.9074 35.4613 41.3944 34.8953 41.9867 34.1582H39.6702V34.0661C39.5517 34.1846 39.3543 34.4478 39.1174 34.8558C38.9989 34.7374 38.7489 34.4478 38.3803 34.0266V38.9886H37.3669V34.2635C37.2484 34.4741 36.7483 35.3165 35.8796 36.7643C35.7875 36.2115 35.6295 35.7376 35.4189 35.3691C36.3139 34.1582 36.9589 32.8947 37.3669 31.5654H35.748L35.7348 31.5522Z" fill="black"/>
<path d="M50.1986 34.1051H48.2507V33.1312H53.1205V34.1051H51.3174V36.9875L53.6338 36.5664V37.6325L48.027 38.6064L47.79 37.4482C47.9743 37.4482 48.7772 37.3429 50.1986 37.1192V34.1051ZM55.1606 29.1037L55.8055 28.4061C56.332 28.7746 56.8058 29.1695 57.2402 29.5643L56.5426 30.2619C56.2925 30.0118 55.8319 29.6301 55.1474 29.1037M54.7921 30.3935H58.043V31.4596H54.7921C54.8184 32.7626 54.9763 33.9472 55.2527 35.0264C55.4633 35.9873 55.7924 36.7375 56.2267 37.3034C56.4373 37.6061 56.6347 37.7641 56.7795 37.7641C56.8716 37.7641 56.9374 37.7246 56.9638 37.6325C57.0559 37.514 57.148 37.1455 57.2402 36.5664C57.5166 36.7506 57.8588 36.9349 58.2536 37.1192C58.043 37.9484 57.8061 38.5143 57.556 38.7907C57.3981 38.9486 57.2138 39.0276 57.0033 39.0276C56.661 39.0276 56.2794 38.8434 55.845 38.4748C55.2264 37.9484 54.7263 37.1455 54.3577 36.0662C53.9892 34.987 53.7523 33.4602 53.6602 31.4728H47.8164V30.4067H53.6602V28.314H54.8184C54.7921 28.7746 54.7658 29.4722 54.7658 30.4067L54.7921 30.3935Z" fill="black"/>
<path d="M41.9994 43.8707C42.2495 44.1207 42.7759 44.5814 43.5788 45.2658H38.1956C38.8406 44.7657 39.7356 43.8838 40.8806 42.6203C41.3413 43.1731 41.7098 43.5943 41.9862 43.8707M37.9193 50.8727L36.3925 50.9648L36.761 52.1757L37.8798 52.0309L40.6174 51.6624C41.1176 51.5703 41.5651 51.5045 41.9599 51.4518C42.3679 51.3992 42.9602 51.3202 43.7631 51.2018C43.921 51.4518 44.1448 51.8204 44.4606 52.3205L45.4741 51.6229C45.2635 51.3202 44.9081 50.8332 44.408 50.1883C44.3159 50.0304 43.842 49.5434 42.9734 48.701L42.1442 49.2538L43.1181 50.3726C41.3018 50.6226 39.9593 50.7543 39.1301 50.7937L40.341 48.3851H45.9479V47.4112H36.024V48.3851H38.9459L37.9193 50.8859M38.8932 43.2126C38.3009 43.7391 37.7218 44.2392 37.1295 44.6999C36.7873 44.9763 36.2346 45.3185 35.458 45.7265C35.7607 46.1608 35.9713 46.4635 36.0634 46.6478C36.7479 46.2793 37.3665 45.8713 37.9193 45.4369V46.2266H43.6709V45.2921C44.2632 45.7265 44.9871 46.1608 45.8558 46.5952C45.9216 46.4372 46.0137 46.2661 46.1322 46.0818C46.198 46.016 46.277 45.9371 46.3691 45.8449C46.4612 45.7528 46.5533 45.6607 46.6455 45.5685C45.5004 45.0421 44.5659 44.5288 43.8684 44.0418C43.1576 43.5153 42.3942 42.8046 41.5914 41.9096L41.7756 41.6858L40.5648 41.2646C39.9725 42.0412 39.4197 42.6861 38.8932 43.2126Z" fill="black"/>
<path d="M51.9234 45.1613H54.2399V41.4496H55.4507V45.1613H57.9515V46.1747H55.4507V50.7155H58.32V51.7421H51.1337V50.7155H54.2399V46.1747H51.9234V45.1613ZM47.6985 43.3054H49.1857V41.4102H50.3045V43.3054H51.4627L51.5549 43.2528L52.2524 43.9504L51.1863 45.6219C51.0679 45.8325 50.8836 46.0694 50.6335 46.3195C51.1337 46.9381 51.647 47.4777 52.2129 47.9384C52.1208 48.0305 52.0287 48.1358 51.9366 48.2411C51.8444 48.3464 51.6865 48.5307 51.4759 48.7676C51.1074 48.399 50.6993 47.9647 50.265 47.4646V52.0975H49.1463V47.7804C48.7383 48.1753 48.3302 48.5175 47.8959 48.7939C47.6195 48.3332 47.3958 48.0173 47.251 47.8594C47.3694 47.7673 47.5274 47.662 47.7116 47.5304C47.8959 47.4119 48.067 47.2935 48.2249 47.1882C48.3829 47.0829 48.4882 46.9907 48.554 46.9381C49.1068 46.4379 49.5016 46.0562 49.7122 45.7799C49.8965 45.5298 50.0807 45.2929 50.2387 45.056C50.4098 44.819 50.5809 44.569 50.7783 44.2926H47.7116V43.266L47.6985 43.3054Z" fill="black"/>
<path d="M72.2443 52.6501C74.9951 52.2816 75.5874 49.7677 75.5874 49.7677L77.2063 35.1187H82.9054V48.5173H80.4178V52.4922H90.3022C90.3022 52.4922 93.5137 52.3869 93.6716 49.5571V31.3018H77.6275L78.0223 26.0107H72.6918L72.1785 31.5255H63.2549V35.1318H71.5205L70.2964 46.8458C70.2964 46.8458 70.1648 48.6489 68.6775 48.7542H63.5839V52.6764H72.2443V52.6501Z" fill="black"/>
<path d="M106.847 25.9453H117.021V31.3021H126.787V34.6584H117.021V48.3334C116.573 52.203 112.599 52.4794 112.599 52.4794H97.3704V48.5308H104.688C106.834 48.2413 106.913 46.4645 106.913 46.4645L106.86 34.9085H96.6729V31.3021H106.847V25.9453Z" fill="black"/>
<path d="M129.762 31.275V34.8287H132.157C133.631 34.8682 134.855 35.342 134.855 35.342L141.226 38.2639L138.843 45.8188C137.698 48.201 135.908 48.2537 135.908 48.2537H127.222V52.1759H143.042C146.148 51.9916 147.254 48.9907 147.254 48.9907L149.478 42.3177L155.269 44.9369C156.809 45.8188 157.875 45.6477 157.875 45.6477H161.547V42.1203H157.151L150.307 39.0273L154.387 25.7734H145.451L142.213 35.1051L135.435 32.0516C133.987 31.2092 132.184 31.275 132.184 31.275H129.762Z" fill="black"/>
<path d="M12.8442 8.358H10.9742C10.7432 8.699 10.5122 9.051 10.2812 9.37C11.1502 9.348 12.0852 9.315 13.0422 9.282C12.7782 9.084 12.5142 8.886 12.2612 8.721L12.8442 8.358ZM13.9442 5.135H7.82822V6.092H13.9442V5.135ZM11.9642 12.747H15.5722V13.583H7.46522V12.747H10.9632V11.746H8.25722V10.932H10.9632V10.129L8.05922 10.25L8.00422 9.425C8.35622 9.425 8.76322 9.414 9.20322 9.403C9.41222 9.084 9.64322 8.71 9.83022 8.358H7.81722C7.75122 10.14 7.49822 12.34 6.54122 13.869C6.34322 13.704 5.89222 13.44 5.62822 13.341C6.70622 11.614 6.80522 9.139 6.80522 7.39V4.299H14.9782V6.928H7.82822V7.39V7.533H15.2752V8.358H13.2292C13.9772 8.853 14.8352 9.524 15.2752 10.03L14.4502 10.58C14.3072 10.404 14.1202 10.217 13.9002 10.008L11.9642 10.096V10.932H14.7582V11.746H11.9642V12.747ZM20.2362 9.722L19.6312 10.525C19.4552 10.151 19.0922 9.535 18.7512 9.007V13.858H17.7942V9.095C17.4312 10.195 16.9692 11.218 16.4852 11.889C16.3752 11.603 16.1332 11.196 15.9792 10.965C16.6722 10.052 17.3542 8.435 17.6842 7.016H16.2432V6.07H17.7942V3.771H18.7512V6.07H20.1152V7.016H18.7512V7.797C19.0702 8.16 20.0272 9.425 20.2362 9.722ZM21.6442 7.137V8.171H24.5262V7.137H21.6442ZM24.5262 5.212H21.6442V6.235H24.5262V5.212ZM25.4282 9.348L26.1212 10.118C25.5602 10.525 24.9222 10.987 24.3722 11.328C24.8672 12.076 25.4942 12.659 26.2862 13.022C26.0662 13.22 25.7472 13.616 25.6042 13.891C23.9432 13.011 22.9972 11.262 22.4692 9.051H21.6442V12.34C22.2492 12.23 22.8982 12.109 23.5472 11.988L23.6132 12.901C22.3812 13.176 21.0722 13.44 20.0712 13.66L19.7962 12.67C20.0492 12.626 20.3462 12.582 20.6652 12.527V4.321H25.5052V9.051H23.3822C23.5362 9.612 23.7232 10.14 23.9652 10.624C24.4822 10.228 25.0542 9.733 25.4282 9.348ZM29.3992 7.544C30.1032 7.544 30.6752 8.116 30.6752 8.82C30.6752 9.524 30.1032 10.096 29.3992 10.096C28.6952 10.096 28.1232 9.524 28.1232 8.82C28.1232 8.116 28.6952 7.544 29.3992 7.544ZM37.1322 6.367H35.2182C34.9982 6.873 34.7452 7.346 34.4812 7.775C35.1192 8.16 35.8232 8.644 36.3182 9.062C36.6702 8.27 36.9452 7.368 37.1322 6.367ZM40.5312 3.782V8.853C41.2792 9.524 42.1152 10.096 42.9512 10.47C42.7202 10.668 42.3792 11.064 42.2252 11.35C41.6422 11.053 41.0702 10.657 40.5312 10.206V13.836H39.4752V9.205C38.9032 8.6 38.3972 7.918 37.9682 7.225C37.1542 10.514 35.5592 12.648 33.5462 13.792C33.3702 13.561 32.9742 13.176 32.7212 13.033C33.9862 12.373 35.0422 11.372 35.8452 9.986C35.3722 9.535 34.6352 8.996 33.9532 8.556C33.7442 8.831 33.5242 9.084 33.3042 9.315C33.1172 9.139 32.6882 8.798 32.4462 8.644C33.6562 7.544 34.5582 5.729 35.0532 3.76L36.0652 3.969C35.9332 4.464 35.7902 4.937 35.6142 5.399H37.4292L37.6162 5.366L38.2982 5.597C38.2432 5.916 38.1882 6.235 38.1332 6.532L38.5292 6.378C38.7822 6.84 39.1012 7.302 39.4752 7.753V3.782H40.5312ZM46.6802 4.97H44.5352V5.872H46.6802V4.97ZM46.7682 9.04V8.083H45.0412V9.04H46.7682ZM44.1942 9.81V8.611C44.0512 9.095 43.8422 9.557 43.5562 9.953C43.4462 9.766 43.0832 9.381 42.9182 9.26C43.5672 8.292 43.6332 6.972 43.6332 5.993V4.189H47.6152V6.664H44.5132C44.5022 6.873 44.4802 7.093 44.4582 7.313H47.6702V9.81H44.1942ZM48.6052 11.57V12.637H53.0052V13.528H43.2482V12.637H47.5602V11.57H44.2712V10.701H47.5602V9.964H48.6052V10.701H52.0592V11.57H48.6052ZM51.2782 5.289H49.5402C49.7052 5.619 49.8592 6.059 49.9032 6.323L49.5072 6.411H51.3002L50.9262 6.345C51.0472 6.048 51.2012 5.619 51.2782 5.289ZM51.7622 6.411H53.0712V7.236H50.9042V8.017H52.8182V8.82H50.9042V10.085H49.9582V8.82H48.0662V8.017H49.9582V7.236H47.8682V6.411H49.0452C48.9792 6.103 48.8582 5.696 48.7152 5.377L49.1662 5.289H48.1432V4.508H49.9582V3.87H50.9042V4.508H52.8182V5.289H51.8062L52.1912 5.355C52.0372 5.74 51.8942 6.114 51.7622 6.411ZM61.7172 4.574C61.6952 4.86 61.6732 5.19 61.6732 5.586V7.544C61.6732 10.063 61.2772 10.998 60.4632 11.922C59.7482 12.758 58.6372 13.264 57.8342 13.528L56.9212 12.571C57.9662 12.307 58.8792 11.889 59.5612 11.141C60.3312 10.261 60.4742 9.403 60.4742 7.478V5.586C60.4742 5.19 60.4412 4.86 60.4082 4.574H61.7172ZM56.6132 4.662C56.5912 4.893 56.5692 5.168 56.5692 5.476V9.161C56.5692 9.447 56.5912 9.832 56.6132 10.052H55.3482C55.3592 9.865 55.3922 9.48 55.3922 9.161V5.476C55.3922 5.278 55.3812 4.893 55.3482 4.662H56.6132ZM73.1022 5.685C73.0142 5.861 72.9592 6.103 72.9042 6.323C72.6622 7.445 72.1562 9.194 71.2652 10.36C70.2642 11.669 68.8892 12.714 66.8872 13.341L65.9412 12.307C68.0972 11.779 69.3402 10.844 70.2422 9.689C71.0012 8.732 71.4742 7.324 71.6172 6.312H66.2162C65.7432 6.312 65.3032 6.334 65.0282 6.356V5.124C65.3362 5.168 65.8532 5.212 66.2162 5.212H71.5512C71.7382 5.212 72.0132 5.201 72.2552 5.135L73.1022 5.685ZM81.4402 6.224C81.3962 6.466 81.3962 6.774 81.3962 7.038C81.3962 7.247 81.4072 7.522 81.4072 7.841H82.8702C83.1232 7.841 83.5082 7.808 83.6732 7.775V8.853C83.4532 8.842 83.1342 8.831 82.9032 8.831H81.4292C81.4622 10.184 81.4952 11.845 81.5062 12.923C81.5062 13.44 81.1212 13.77 80.5712 13.77C80.0872 13.77 79.3942 13.737 78.9322 13.704L78.8662 12.703C79.3062 12.769 79.8672 12.813 80.1752 12.813C80.3732 12.813 80.4612 12.692 80.4612 12.472C80.4612 11.845 80.4502 10.811 80.4392 9.777C79.6802 10.8 78.1292 12.131 76.7212 12.879L75.9622 12.01C77.5682 11.262 79.1852 9.909 79.9442 8.831H77.2492C76.9522 8.831 76.6222 8.842 76.3362 8.864V7.775C76.5892 7.819 76.9522 7.841 77.2272 7.841H80.4062C80.3952 7.522 80.3842 7.258 80.3732 7.038C80.3622 6.807 80.3402 6.488 80.2962 6.224H81.4402ZM85.9062 8.094C86.2692 8.116 86.9512 8.16 87.5452 8.16H93.5292C94.0572 8.16 94.4862 8.116 94.7612 8.094V9.458C94.5192 9.447 94.0132 9.403 93.5292 9.403H87.5452C86.9402 9.403 86.2802 9.425 85.9062 9.458V8.094ZM101.072 4.761C100.951 5.058 100.819 5.388 100.654 5.872C100.324 6.917 99.3232 10.03 98.7732 11.482C100.269 11.35 102.128 11.141 103.305 10.987C102.887 10.151 102.436 9.348 102.051 8.842L103.118 8.38C103.888 9.535 105.065 11.724 105.538 12.901L104.372 13.429C104.229 13.044 104.031 12.56 103.8 12.054C102.051 12.263 98.5312 12.648 97.1012 12.78C96.8262 12.813 96.4632 12.868 96.1332 12.912L95.9352 11.636C96.2762 11.636 96.7052 11.636 97.0352 11.614C97.1672 11.603 97.3212 11.603 97.4862 11.592C98.1022 10.019 99.1472 6.73 99.4552 5.619C99.6092 5.091 99.6532 4.794 99.6972 4.475L101.072 4.761ZM110.51 12.78L109.696 13.407C109.377 12.956 108.662 12.296 108.057 11.856L108.827 11.306C109.432 11.724 110.158 12.34 110.51 12.78ZM108.453 8.226V8.974H110.807V8.226H108.453ZM108.453 6.785V7.544H110.807V6.785H108.453ZM114.239 6.785H111.808V7.544H114.239V6.785ZM114.239 8.974V8.226H111.808V8.974H114.239ZM116.263 10.437V11.306H113.832V12.835C113.832 13.352 113.722 13.605 113.326 13.748C112.919 13.88 112.303 13.891 111.401 13.891C111.346 13.616 111.203 13.242 111.071 12.989C111.731 13.011 112.413 13.011 112.6 13.011C112.776 13 112.831 12.956 112.831 12.802V11.306H106.44V10.437H112.831V9.7H107.496V6.07H110.807V5.443H106.704V4.574H110.807V3.782H111.808V4.574H116.01V5.443H111.808V6.07H115.24V9.7H113.832V10.437H116.263ZM120.575 5.102H118.529V5.883H120.575V5.102ZM118.529 7.5H120.575V6.642H118.529V7.5ZM121.532 4.244V8.336H118.529V13.858H117.517V4.244H121.532ZM123.413 7.522H125.536V6.642H123.413V7.522ZM125.536 5.102H123.413V5.883H125.536V5.102ZM126.581 4.244V12.549C126.581 13.187 126.438 13.495 126.02 13.671C125.591 13.836 124.92 13.858 123.897 13.858C123.864 13.572 123.688 13.088 123.534 12.802C124.26 12.835 125.03 12.824 125.25 12.824C125.47 12.813 125.536 12.747 125.536 12.549V8.347H122.434V4.244H126.581ZM129.155 5.63V6.983H128.143V4.695H132.147V3.771H133.203V4.695H137.273V6.983H136.239V5.63H129.155ZM136.404 7.676L137.207 8.358C136.569 8.864 135.755 9.403 135.062 9.788C135.711 10.855 136.591 11.691 137.713 12.153C137.471 12.362 137.152 12.758 136.998 13.044C134.974 12.065 133.786 10.008 133.126 7.434H133.104C132.807 7.687 132.455 7.929 132.092 8.138C134.171 9.953 134.127 12.714 133.06 13.484C132.675 13.792 132.356 13.891 131.828 13.891C131.553 13.891 131.223 13.88 130.882 13.858C130.86 13.583 130.772 13.176 130.596 12.879C130.992 12.923 131.355 12.934 131.619 12.934C131.905 12.934 132.136 12.912 132.345 12.714C132.675 12.472 132.84 11.812 132.708 11.031C131.509 11.966 129.782 12.879 128.33 13.363C128.198 13.121 127.989 12.736 127.791 12.516C129.408 12.098 131.344 11.13 132.433 10.151C132.345 9.964 132.246 9.777 132.136 9.59C131.201 10.239 129.793 10.943 128.693 11.339C128.583 11.097 128.363 10.756 128.176 10.547C129.309 10.25 130.827 9.59 131.663 8.974C131.542 8.842 131.41 8.71 131.256 8.589C130.409 8.996 129.474 9.326 128.605 9.568C128.506 9.381 128.231 8.952 128.066 8.776C129.32 8.49 130.673 8.028 131.674 7.434H129.65V6.554H135.667V7.434H134.05C134.204 7.984 134.402 8.523 134.633 9.018C135.26 8.611 135.953 8.094 136.404 7.676Z" fill="black"/>
</svg>
